{
  "accessors": [
    {
      "bufferView": 2,
      "componentType": 5126,
      "count": 312,
      "max": [
        300.68707275390625,
        102.47774505615234,
        6.661123275756836
      ],
      "min": [
        -15.494966506958008,
        -103.09317779541016,
        -6.414207935333252
      ],
      "type": "VEC3"
    },
    {
      "bufferView": 2,
      "byteOffset": 3744,
      "componentType": 5126,
      "count": 312,
      "max": [
        1.0,
        1.0,
        1.0
      ],
      "min": [
        -1.0,
        -1.0,
        -1.0
      ],
      "type": "VEC3"
    },
    {
      "bufferView": 3,
      "componentType": 5126,
      "count": 312,
      "max": [
        1.0,
        0.9999980926513672,
        1.0,
        1.0
      ],
      "min": [
        -0.9999828338623047,
        -0.9999980926513672,
        -1.0,
        -1.0
      ],
      "type": "VEC4"
    },
    {
      "bufferView": 1,
      "componentType": 5126,
      "count": 312,
      "max": [
        1.0,
        0.9670629501342773
      ],
      "min": [
        0.0,
        0.0
      ],
      "type": "VEC2"
    },
    {
      "bufferView": 1,
      "byteOffset": 2496,
      "componentType": 5126,
      "count": 312,
      "max": [
        1.0,
        0.9670629501342773
      ],
      "min": [
        0.0,
        0.0
      ],
      "type": "VEC2"
    },
    {
      "bufferView": 1,
      "byteOffset": 4992,
      "componentType": 5126,
      "count": 312,
      "max": [
        1.0,
        0.9670629501342773
      ],
      "min": [
        0.0,
        0.0
      ],
      "type": "VEC2"
    },
    {
      "bufferView": 1,
      "byteOffset": 7488,
      "componentType": 5126,
      "count": 312,
      "max": [
        1.0,
        0.9670629501342773
      ],
      "min": [
        0.0,
        0.0
      ],
      "type": "VEC2"
    },
    {
      "bufferView": 1,
      "byteOffset": 9984,
      "componentType": 5126,
      "count": 312,
      "max": [
        1.0,
        0.9670629501342773
      ],
      "min": [
        0.0,
        0.0
      ],
      "type": "VEC2"
    },
    {
      "bufferView": 1,
      "byteOffset": 12480,
      "componentType": 5126,
      "count": 312,
      "max": [
        1.0,
        0.9670629501342773
      ],
      "min": [
        0.0,
        0.0
      ],
      "type": "VEC2"
    },
    {
      "bufferView": 1,
      "byteOffset": 14976,
      "componentType": 5126,
      "count": 312,
      "max": [
        1.0,
        0.9670629501342773
      ],
      "min": [
        0.0,
        0.0
      ],
      "type": "VEC2"
    },
    {
      "bufferView": 1,
      "byteOffset": 17472,
      "componentType": 5126,
      "count": 312,
      "max": [
        1.0,
        0.9670629501342773
      ],
      "min": [
        0.0,
        0.0
      ],
      "type": "VEC2"
    },
    {
      "bufferView": 1,
      "byteOffset": 19968,
      "componentType": 5126,
      "count": 312,
      "max": [
        1.0,
        0.9670629501342773
      ],
      "min": [
        0.0,
        0.0
      ],
      "type": "VEC2"
    },
    {
      "bufferView": 1,
      "byteOffset": 22464,
      "componentType": 5126,
      "count": 312,
      "max": [
        1.0,
        0.9670629501342773
      ],
      "min": [
        0.0,
        0.0
      ],
      "type": "VEC2"
    },
    {
      "bufferView": 0,
      "componentType": 5125,
      "count": 468,
      "type": "SCALAR"
    },
    {
      "bufferView": 2,
      "byteOffset": 7488,
      "componentType": 5126,
      "count": 312,
      "max": [
        5.047579765319824,
        119.4937515258789,
        5.976485252380371
      ],
      "min": [
        -310.5337829589844,
        -87.50210571289063,
        -5.976485252380371
      ],
      "type": "VEC3"
    },
    {
      "bufferView": 2,
      "byteOffset": 11232,
      "componentType": 5126,
      "count": 312,
      "max": [
        1.0,
        1.0,
        1.0
      ],
      "min": [
        -1.0,
        -1.0,
        -1.0
      ],
      "type": "VEC3"
    },
    {
      "bufferView": 3,
      "byteOffset": 4992,
      "componentType": 5126,
      "count": 312,
      "max": [
        1.0,
        1.0,
        1.0,
        1.0
      ],
      "min": [
        -1.0,
        -0.9999291896820068,
        -1.0,
        -1.0
      ],
      "type": "VEC4"
    },
    {
      "bufferView": 1,
      "byteOffset": 24960,
      "componentType": 5126,
      "count": 312,
      "max": [
        0.9624962210655212,
        0.9934374094009399
      ],
      "min": [
        0.0,
        0.0
      ],
      "type": "VEC2"
    },
    {
      "bufferView": 1,
      "byteOffset": 27456,
      "componentType": 5126,
      "count": 312,
      "max": [
        0.9624962210655212,
        0.9934374094009399
      ],
      "min": [
        0.0,
        0.0
      ],
      "type": "VEC2"
    },
    {
      "bufferView": 1,
      "byteOffset": 29952,
      "componentType": 5126,
      "count": 312,
      "max": [
        0.9624962210655212,
        0.9934374094009399
      ],
      "min": [
        0.0,
        0.0
      ],
      "type": "VEC2"
    },
    {
      "bufferView": 1,
      "byteOffset": 32448,
      "componentType": 5126,
      "count": 312,
      "max": [
        0.9624962210655212,
        0.9934374094009399
      ],
      "min": [
        0.0,
        0.0
      ],
      "type": "VEC2"
    },
    {
      "bufferView": 1,
      "byteOffset": 34944,
      "componentType": 5126,
      "count": 312,
      "max": [
        0.9624962210655212,
        0.9934374094009399
      ],
      "min": [
        0.0,
        0.0
      ],
      "type": "VEC2"
    },
    {
      "bufferView": 1,
      "byteOffset": 37440,
      "componentType": 5126,
      "count": 312,
      "max": [
        0.9624962210655212,
        0.9934374094009399
      ],
      "min": [
        0.0,
        0.0
      ],
      "type": "VEC2"
    },
    {
      "bufferView": 1,
      "byteOffset": 39936,
      "componentType": 5126,
      "count": 312,
      "max": [
        0.9624962210655212,
        0.9934374094009399
      ],
      "min": [
        0.0,
        0.0
      ],
      "type": "VEC2"
    },
    {
      "bufferView": 1,
      "byteOffset": 42432,
      "componentType": 5126,
      "count": 312,
      "max": [
        0.9624962210655212,
        0.9934374094009399
      ],
      "min": [
        0.0,
        0.0
      ],
      "type": "VEC2"
    },
    {
      "bufferView": 1,
      "byteOffset": 44928,
      "componentType": 5126,
      "count": 312,
      "max": [
        0.9624962210655212,
        0.9934374094009399
      ],
      "min": [
        0.0,
        0.0
      ],
      "type": "VEC2"
    },
    {
      "bufferView": 1,
      "byteOffset": 47424,
      "componentType": 5126,
      "count": 312,
      "max": [
        0.9624962210655212,
        0.9934374094009399
      ],
      "min": [
        0.0,
        0.0
      ],
      "type": "VEC2"
    },
    {
      "bufferView": 0,
      "byteOffset": 1872,
      "componentType": 5125,
      "count": 468,
      "type": "SCALAR"
    }
  ],
  "asset": {
    "extras": {
      "author": "MrUnity (https://sketchfab.com/MrUnityCreations)",
      "license": "CC-BY-NC-4.0 (http://creativecommons.org/licenses/by-nc/4.0/)",
      "source": "https://sketchfab.com/3d-models/wooden-fences-low-poly-1db7df90770e44128bc154a96bc0fe4c",
      "title": "Wooden Fences  [Low Poly]"
    },
    "generator": "Sketchfab-12.66.0",
    "version": "2.0"
  },
  "bufferViews": [
    {
      "buffer": 0,
      "byteLength": 3744,
      "name": "floatBufferViews",
      "target": 34963
    },
    {
      "buffer": 0,
      "byteLength": 49920,
      "byteOffset": 3744,
      "byteStride": 8,
      "name": "floatBufferViews",
      "target": 34962
    },
    {
      "buffer": 0,
      "byteLength": 14976,
      "byteOffset": 53664,
      "byteStride": 12,
      "name": "floatBufferViews",
      "target": 34962
    },
    {
      "buffer": 0,
      "byteLength": 9984,
      "byteOffset": 68640,
      "byteStride": 16,
      "name": "floatBufferViews",
      "target": 34962
    }
  ],
  "buffers": [
    {
      "byteLength": 78624,
      "uri": "scene.bin"
    }
  ],
  "images": [
    {
      "uri": "textures/Fence_mat_baseColor.jpeg"
    },
    {
      "uri": "textures/Fence_mat_metallicRoughness.png"
    },
    {
      "uri": "textures/Fence_mat_normal.png"
    }
  ],
  "materials": [
    {
      "doubleSided": true,
      "name": "Fence_mat",
      "normalTexture": {
        "index": 2
      },
      "occlusionTexture": {
        "index": 1
      },
      "pbrMetallicRoughness": {
        "baseColorTexture": {
          "index": 0
        },
        "metallicRoughnessTexture": {
          "index": 1
        }
      }
    },
    {
      "doubleSided": true,
      "name": "Fence_mat_0",
      "normalTexture": {
        "index": 2
      },
      "occlusionTexture": {
        "index": 1
      },
      "pbrMetallicRoughness": {
        "baseColorTexture": {
          "index": 0
        },
        "metallicRoughnessTexture": {
          "index": 1
        }
      }
    }
  ],
  "meshes": [
    {
      "name": "Wooden_Fence_1_Fence_mat_0",
      "primitives": [
        {
          "attributes": {
            "NORMAL": 1,
            "POSITION": 0,
            "TANGENT": 2,
            "TEXCOORD_0": 3,
            "TEXCOORD_1": 4,
            "TEXCOORD_2": 5,
            "TEXCOORD_3": 6,
            "TEXCOORD_4": 7,
            "TEXCOORD_5": 8,
            "TEXCOORD_6": 9,
            "TEXCOORD_7": 10,
            "TEXCOORD_8": 11,
            "TEXCOORD_9": 12
          },
          "indices": 13,
          "material": 0,
          "mode": 4
        }
      ]
    },
    {
      "name": "Wooden_Fence_2_Fence_mat_0",
      "primitives": [
        {
          "attributes": {
            "NORMAL": 15,
            "POSITION": 14,
            "TANGENT": 16,
            "TEXCOORD_0": 17,
            "TEXCOORD_1": 18,
            "TEXCOORD_2": 19,
            "TEXCOORD_3": 20,
            "TEXCOORD_4": 21,
            "TEXCOORD_5": 22,
            "TEXCOORD_6": 23,
            "TEXCOORD_7": 24,
            "TEXCOORD_8": 25,
            "TEXCOORD_9": 26
          },
          "indices": 27,
          "material": 1,
          "mode": 4
        }
      ]
    }
  ],
  "nodes": [
    {
      "children": [
        1
      ],
      "matrix": [
        0.9307671785354614,
        0.0,
        0.0,
        0.0,
        0.0,
        2.0667183043509261e-16,
        -0.9307671785354614,
        0.0,
        0.0,
        0.9307671785354614,
        2.0667183043509261e-16,
        0.0,
        0.0,
        0.0,
        0.0,
        1.0
      ],
      "name": "Sketchfab_model"
    },
    {
      "children": [
        2
      ],
      "matrix": [
        0.009999999776482582,
        0.0,
        0.0,
        0.0,
        0.0,
        0.0,
        0.009999999776482582,
        0.0,
        0.0,
        -0.009999999776482582,
        0.0,
        0.0,
        0.0,
        0.0,
        0.0,
        1.0
      ],
      "name": "c6593dd69b4c4aa2ba66becb7844cc6b.fbx"
    },
    {
      "children": [
        3
      ],
      "name": "RootNode"
    },
    {
      "children": [
        4,
        6
      ],
      "name": "Fence"
    },
    {
      "children": [
        5
      ],
      "matrix": [
        0.9999814515690142,
        0.0060899943257751365,
        -9.212512842567751e-05,
        0.0,
        -0.00608922817476359,
        0.9999583939799397,
        0.006792025419229583,
        0.0,
        0.00013348469172936483,
        -0.006791338466887227,
        0.999976929685713,
        0.0,
        -138.5597381591797,
        97.9459457397461,
        0.02966451831161976,
        1.0
      ],
      "name": "Wooden_Fence_1"
    },
    {
      "mesh": 0,
      "name": "Wooden_Fence_1_Fence_mat_0"
    },
    {
      "children": [
        7
      ],
      "matrix": [
        1.0,
        0.0,
        0.0,
        0.0,
        0.0,
        0.9999999999999867,
        1.6292064344160392e-07,
        0.0,
        0.0,
        -1.6292064344160392e-07,
        0.9999999999999867,
        0.0,
        -157.5618438720703,
        81.20238494873047,
        0.0,
        1.0
      ],
      "name": "Wooden_Fence_2"
    },
    {
      "mesh": 1,
      "name": "Wooden_Fence_2_Fence_mat_0"
    }
  ],
  "samplers": [
    {
      "magFilter": 9729,
      "minFilter": 9987,
      "wrapS": 10497,
      "wrapT": 10497
    }
  ],
  "scene": 0,
  "scenes": [
    {
      "name": "Sketchfab_Scene",
      "nodes": [
        0
      ]
    }
  ],
  "textures": [
    {
      "sampler": 0,
      "source": 0
    },
    {
      "sampler": 0,
      "source": 1
    },
    {
      "sampler": 0,
      "source": 2
    }
  ]
}
