{
  "accessors": [
    {
      "bufferView": 2,
      "componentType": 5126,
      "count": 4,
      "max": [
        109.83689880371094,
        136.1623992919922,
        0.0
      ],
      "min": [
        48.52436828613281,
        73.849853515625,
        0.0
      ],
      "type": "VEC3"
    },
    {
      "bufferView": 2,
      "byteOffset": 48,
      "componentType": 5126,
      "count": 4,
      "max": [
        0.0,
        0.0,
        -1.0
      ],
      "min": [
        0.0,
        0.0,
        -1.0
      ],
      "type": "VEC3"
    },
    {
      "bufferView": 1,
      "componentType": 5126,
      "count": 4,
      "max": [
        0.0,
        0.0
      ],
      "min": [
        0.0,
        0.0
      ],
      "type": "VEC2"
    },
    {
      "bufferView": 0,
      "componentType": 5125,
      "count": 6,
      "type": "SCALAR"
    },
    {
      "bufferView": 2,
      "byteOffset": 96,
      "componentType": 5126,
      "count": 64,
      "max": [
        109.83689880371094,
        136.1623992919922,
        61.0625
      ],
      "min": [
        48.52436828613281,
        73.849853515625,
        57.75
      ],
      "type": "VEC3"
    },
    {
      "bufferView": 2,
      "byteOffset": 864,
      "componentType": 5126,
      "count": 64,
      "max": [
        1.0,
        1.0,
        1.0
      ],
      "min": [
        -1.0,
        -1.0,
        -0.0
      ],
      "type": "VEC3"
    },
    {
      "bufferView": 1,
      "byteOffset": 32,
      "componentType": 5126,
      "count": 64,
      "max": [
        2.489974021911621,
        2.99851393699646
      ],
      "min": [
        -2.489974021911621,
        1.1045550107955933
      ],
      "type": "VEC2"
    },
    {
      "bufferView": 0,
      "byteOffset": 24,
      "componentType": 5125,
      "count": 162,
      "type": "SCALAR"
    },
    {
      "bufferView": 2,
      "byteOffset": 1632,
      "componentType": 5126,
      "count": 216,
      "max": [
        109.83689880371094,
        136.1623992919922,
        61.0625
      ],
      "min": [
        48.52436828613281,
        73.849853515625,
        0.0
      ],
      "type": "VEC3"
    },
    {
      "bufferView": 2,
      "byteOffset": 4224,
      "componentType": 5126,
      "count": 216,
      "max": [
        1.0,
        1.0,
        1.0
      ],
      "min": [
        -1.0,
        -1.0,
        -0.4025284945964813
      ],
      "type": "VEC3"
    },
    {
      "bufferView": 1,
      "byteOffset": 544,
      "componentType": 5126,
      "count": 216,
      "max": [
        2.0449259281158447,
        1.5103950500488281
      ],
      "min": [
        -2.432594060897827,
        -1.4253300428390503
      ],
      "type": "VEC2"
    },
    {
      "bufferView": 0,
      "byteOffset": 672,
      "componentType": 5125,
      "count": 450,
      "type": "SCALAR"
    },
    {
      "bufferView": 2,
      "byteOffset": 6816,
      "componentType": 5126,
      "count": 24,
      "max": [
        49.08686828613281,
        133.01609802246094,
        61.0625
      ],
      "min": [
        48.52436828613281,
        77.67835235595703,
        58.198570251464844
      ],
      "type": "VEC3"
    },
    {
      "bufferView": 2,
      "byteOffset": 7104,
      "componentType": 5126,
      "count": 24,
      "max": [
        0.0,
        0.9247310161590576,
        -0.32144078612327576
      ],
      "min": [
        0.0,
        -0.9469296932220459,
        -0.41526588797569275
      ],
      "type": "VEC3"
    },
    {
      "bufferView": 1,
      "byteOffset": 2272,
      "componentType": 5126,
      "count": 24,
      "max": [
        76.65525817871094,
        33.0201301574707
      ],
      "min": [
        -76.65525817871094,
        0.013357830233871937
      ],
      "type": "VEC2"
    },
    {
      "bufferView": 0,
      "byteOffset": 2472,
      "componentType": 5125,
      "count": 36,
      "type": "SCALAR"
    },
    {
      "bufferView": 2,
      "byteOffset": 7392,
      "componentType": 5126,
      "count": 100,
      "max": [
        107.64959716796875,
        136.1623992919922,
        61.0625
      ],
      "min": [
        48.52436828613281,
        73.849853515625,
        4.662210941314697
      ],
      "type": "VEC3"
    },
    {
      "bufferView": 2,
      "byteOffset": 8592,
      "componentType": 5126,
      "count": 100,
      "max": [
        1.0,
        1.0,
        1.0
      ],
      "min": [
        -1.0,
        -1.0,
        -0.4025284945964813
      ],
      "type": "VEC3"
    },
    {
      "bufferView": 1,
      "byteOffset": 2464,
      "componentType": 5126,
      "count": 100,
      "max": [
        168.10830688476563,
        43.40372085571289
      ],
      "min": [
        -212.6343994140625,
        -27.62618064880371
      ],
      "type": "VEC2"
    },
    {
      "bufferView": 0,
      "byteOffset": 2616,
      "componentType": 5125,
      "count": 150,
      "type": "SCALAR"
    }
  ],
  "asset": {
    "extras": {
      "author": "altncaglar (https://sketchfab.com/altncaglar)",
      "license": "CC-BY-4.0 (http://creativecommons.org/licenses/by/4.0/)",
      "source": "https://sketchfab.com/3d-models/building-b3295edbc6ee4023978c2209df0d9a35",
      "title": "Building"
    },
    "generator": "Sketchfab-12.66.0",
    "version": "2.0"
  },
  "bufferViews": [
    {
      "buffer": 0,
      "byteLength": 3216,
      "name": "floatBufferViews",
      "target": 34963
    },
    {
      "buffer": 0,
      "byteLength": 3264,
      "byteOffset": 3216,
      "byteStride": 8,
      "name": "floatBufferViews",
      "target": 34962
    },
    {
      "buffer": 0,
      "byteLength": 9792,
      "byteOffset": 6480,
      "byteStride": 12,
      "name": "floatBufferViews",
      "target": 34962
    }
  ],
  "buffers": [
    {
      "byteLength": 16272,
      "uri": "scene.bin"
    }
  ],
  "extensionsUsed": [
    "KHR_materials_clearcoat"
  ],
  "images": [
    {
      "uri": "textures/material_baseColor.jpeg"
    },
    {
      "uri": "textures/material_metallicRoughness.png"
    },
    {
      "uri": "textures/Lisanne_Boot_Sole_01_1_metallicRoughness.png"
    },
    {
      "uri": "textures/Lisanne_Boot_Sole_01_1_clearcoat.png"
    },
    {
      "uri": "textures/Lisanne_Boot_Sole_01_1_clearcoat_normal.png"
    },
    {
      "uri": "textures/Lisanne_Bandana_1_baseColor.jpeg"
    },
    {
      "uri": "textures/Lisanne_Bandana_1_metallicRoughness.png"
    },
    {
      "uri": "textures/Lisanne_Bandana_3_baseColor.jpeg"
    },
    {
      "uri": "textures/Lisanne_Bandana_2_baseColor.jpeg"
    }
  ],
  "materials": [
    {
      "name": "material",
      "occlusionTexture": {
        "index": 1
      },
      "pbrMetallicRoughness": {
        "baseColorFactor": [
          0.0,
          0.0,
          0.0,
          1.0
        ],
        "baseColorTexture": {
          "index": 0
        },
        "metallicRoughnessTexture": {
          "index": 1
        }
      }
    },
    {
      "extensions": {
        "KHR_materials_clearcoat": {
          "clearcoatFactor": 1.0,
          "clearcoatNormalTexture": {
            "index": 4
          },
          "clearcoatRoughnessFactor": 1.0,
          "clearcoatRoughnessTexture": {
            "index": 2
          },
          "clearcoatTexture": {
            "index": 3
          }
        }
      },
      "name": "Lisanne_Boot_Sole_01_1",
      "occlusionTexture": {
        "index": 2,
        "strength": 0.684641768292683
      },
      "pbrMetallicRoughness": {
        "baseColorTexture": {
          "index": 0
        },
        "metallicFactor": 0.0,
        "metallicRoughnessTexture": {
          "index": 2
        }
      }
    },
    {
      "name": "Lisanne_Bandana_1",
      "occlusionTexture": {
        "index": 6,
        "strength": 0.020007622
      },
      "pbrMetallicRoughness": {
        "baseColorTexture": {
          "index": 5
        },
        "metallicFactor": 0.0,
        "metallicRoughnessTexture": {
          "index": 6
        }
      }
    },
    {
      "name": "Lisanne_Bandana_3",
      "pbrMetallicRoughness": {
        "baseColorTexture": {
          "index": 7
        },
        "metallicFactor": 0.0,
        "roughnessFactor": 0.6
      }
    },
    {
      "name": "Lisanne_Bandana_2",
      "pbrMetallicRoughness": {
        "baseColorTexture": {
          "index": 8
        },
        "metallicFactor": 0.0,
        "roughnessFactor": 0.6
      }
    }
  ],
  "meshes": [
    {
      "name": "Material2",
      "primitives": [
        {
          "attributes": {
            "NORMAL": 1,
            "POSITION": 0,
            "TEXCOORD_0": 2
          },
          "indices": 3,
          "material": 0,
          "mode": 4
        }
      ]
    },
    {
      "name": "Material2",
      "primitives": [
        {
          "attributes": {
            "NORMAL": 5,
            "POSITION": 4,
            "TEXCOORD_0": 6
          },
          "indices": 7,
          "material": 1,
          "mode": 4
        }
      ]
    },
    {
      "name": "Material2",
      "primitives": [
        {
          "attributes": {
            "NORMAL": 9,
            "POSITION": 8,
            "TEXCOORD_0": 10
          },
          "indices": 11,
          "material": 2,
          "mode": 4
        }
      ]
    },
    {
      "name": "Material2",
      "primitives": [
        {
          "attributes": {
            "NORMAL": 13,
            "POSITION": 12,
            "TEXCOORD_0": 14
          },
          "indices": 15,
          "material": 3,
          "mode": 4
        }
      ]
    },
    {
      "name": "Material2",
      "primitives": [
        {
          "attributes": {
            "NORMAL": 17,
            "POSITION": 16,
            "TEXCOORD_0": 18
          },
          "indices": 19,
          "material": 4,
          "mode": 4
        }
      ]
    }
  ],
  "nodes": [
    {
      "children": [
        1
      ],
      "matrix": [
        0.09471461921930313,
        0.0,
        0.0,
        0.0,
        0.0,
        2.103087020517494e-17,
        -0.09471461921930313,
        0.0,
        0.0,
        0.09471461921930313,
        2.103087020517494e-17,
        0.0,
        0.0,
        0.0,
        0.0,
        1.0
      ],
      "name": "Sketchfab_model"
    },
    {
      "children": [
        2
      ],
      "name": "Collada visual scene group"
    },
    {
      "children": [
        5,
        6,
        7,
        8,
        9,
        3
      ],
      "name": "SketchUp"
    },
    {
      "children": [
        4
      ],
      "matrix": [
        -0.9832683,
        0.1821633,
        1.387779e-17,
        0.0,
        -0.1147579,
        -0.6194324,
        0.7766171,
        0.0,
        0.1414711,
        0.7636229,
        0.6299729,
        0.0,
        104.0411,
        208.9472,
        130.8199,
        1.0
      ],
      "name": "skp_camera_Last_Saved_SketchUp_View"
    },
    {
      "name": "ID1"
    },
    {
      "mesh": 0,
      "name": "Material2"
    },
    {
      "mesh": 1,
      "name": "Material2"
    },
    {
      "mesh": 2,
      "name": "Material2"
    },
    {
      "mesh": 3,
      "name": "Material2"
    },
    {
      "mesh": 4,
      "name": "Material2"
    }
  ],
  "samplers": [
    {
      "magFilter": 9729,
      "minFilter": 9987,
      "wrapS": 10497,
      "wrapT": 10497
    }
  ],
  "scene": 0,
  "scenes": [
    {
      "name": "Sketchfab_Scene",
      "nodes": [
        0
      ]
    }
  ],
  "textures": [
    {
      "sampler": 0,
      "source": 0
    },
    {
      "sampler": 0,
      "source": 1
    },
    {
      "sampler": 0,
      "source": 2
    },
    {
      "sampler": 0,
      "source": 3
    },
    {
      "sampler": 0,
      "source": 4
    },
    {
      "sampler": 0,
      "source": 5
    },
    {
      "sampler": 0,
      "source": 6
    },
    {
      "sampler": 0,
      "source": 7
    },
    {
      "sampler": 0,
      "source": 8
    }
  ]
}
