{
  "accessors": [
    {
      "bufferView": 2,
      "componentType": 5126,
      "count": 5891,
      "max": [
        0.36509737372398376,
        1.8408970832824707,
        0.6620264053344727
      ],
      "min": [
        -0.34041669964790344,
        -0.2020861804485321,
        -0.6680264472961426
      ],
      "type": "VEC3"
    },
    {
      "bufferView": 2,
      "byteOffset": 70692,
      "componentType": 5126,
      "count": 5891,
      "max": [
        1.0,
        1.0,
        1.0
      ],
      "min": [
        -1.0,
        -1.0,
        -1.0
      ],
      "type": "VEC3"
    },
    {
      "bufferView": 1,
      "componentType": 5126,
      "count": 5891,
      "max": [
        0.9963715672492981,
        0.9901549816131592
      ],
      "min": [
        0.010233469307422638,
        0.010131418704986572
      ],
      "type": "VEC2"
    },
    {
      "bufferView": 1,
      "byteOffset": 47128,
      "componentType": 5126,
      "count": 5891,
      "max": [
        0.9963715672492981,
        0.9901549816131592
      ],
      "min": [
        0.010233469307422638,
        0.010131418704986572
      ],
      "type": "VEC2"
    },
    {
      "bufferView": 1,
      "byteOffset": 94256,
      "componentType": 5126,
      "count": 5891,
      "max": [
        0.9963715672492981,
        0.9901549816131592
      ],
      "min": [
        0.010233469307422638,
        0.010131418704986572
      ],
      "type": "VEC2"
    },
    {
      "bufferView": 1,
      "byteOffset": 141384,
      "componentType": 5126,
      "count": 5891,
      "max": [
        0.9963715672492981,
        0.9901549816131592
      ],
      "min": [
        0.010233469307422638,
        0.010131418704986572
      ],
      "type": "VEC2"
    },
    {
      "bufferView": 1,
      "byteOffset": 188512,
      "componentType": 5126,
      "count": 5891,
      "max": [
        0.9963715672492981,
        0.9901549816131592
      ],
      "min": [
        0.010233469307422638,
        0.010131418704986572
      ],
      "type": "VEC2"
    },
    {
      "bufferView": 0,
      "componentType": 5125,
      "count": 13458,
      "type": "SCALAR"
    }
  ],
  "asset": {
    "extras": {
      "author": "Kirill Chechin (https://sketchfab.com/k.che4in)",
      "license": "CC-BY-4.0 (http://creativecommons.org/licenses/by/4.0/)",
      "source": "https://sketchfab.com/3d-models/display-case-for-groceries-2b777f898a3d4ee9bf124390f0440b31",
      "title": "Display Case for Groceries"
    },
    "generator": "Sketchfab-12.67.0",
    "version": "2.0"
  },
  "bufferViews": [
    {
      "buffer": 0,
      "byteLength": 53832,
      "name": "floatBufferViews",
      "target": 34963
    },
    {
      "buffer": 0,
      "byteLength": 235640,
      "byteOffset": 53832,
      "byteStride": 8,
      "name": "floatBufferViews",
      "target": 34962
    },
    {
      "buffer": 0,
      "byteLength": 141384,
      "byteOffset": 289472,
      "byteStride": 12,
      "name": "floatBufferViews",
      "target": 34962
    }
  ],
  "buffers": [
    {
      "byteLength": 430856,
      "uri": "scene.bin"
    }
  ],
  "extensionsUsed": [
    "KHR_materials_transmission"
  ],
  "images": [
    {
      "uri": "textures/export_baseColor.png"
    },
    {
      "uri": "textures/export_metallicRoughness.png"
    },
    {
      "uri": "textures/export_emissive.png"
    },
    {
      "uri": "textures/export_transmission.png"
    }
  ],
  "materials": [
    {
      "alphaMode": "BLEND",
      "doubleSided": true,
      "emissiveFactor": [
        1.0,
        1.0,
        1.0
      ],
      "emissiveTexture": {
        "index": 2,
        "texCoord": 2
      },
      "extensions": {
        "KHR_materials_transmission": {
          "transmissionFactor": 1.0,
          "transmissionTexture": {
            "index": 3
          }
        }
      },
      "name": "export",
      "pbrMetallicRoughness": {
        "baseColorTexture": {
          "index": 0
        },
        "metallicRoughnessTexture": {
          "index": 1,
          "texCoord": 1
        }
      }
    }
  ],
  "meshes": [
    {
      "name": "Object_0",
      "primitives": [
        {
          "attributes": {
            "NORMAL": 1,
            "POSITION": 0,
            "TEXCOORD_0": 2,
            "TEXCOORD_1": 3,
            "TEXCOORD_2": 4,
            "TEXCOORD_3": 5,
            "TEXCOORD_4": 6
          },
          "indices": 7,
          "material": 0,
          "mode": 4
        }
      ]
    }
  ],
  "nodes": [
    {
      "children": [
        1
      ],
      "matrix": [
        1.0,
        0.0,
        0.0,
        0.0,
        0.0,
        2.220446049250313e-16,
        -1.0,
        0.0,
        0.0,
        1.0,
        2.220446049250313e-16,
        0.0,
        0.0,
        0.0,
        0.0,
        1.0
      ],
      "name": "Sketchfab_model"
    },
    {
      "children": [
        2
      ],
      "name": "root"
    },
    {
      "children": [
        3
      ],
      "matrix": [
        1.0,
        0.0,
        0.0,
        0.0,
        0.0,
        2.220446049250313e-16,
        1.0,
        0.0,
        0.0,
        -1.0,
        2.220446049250313e-16,
        0.0,
        0.0,
        0.0,
        0.0,
        1.0
      ],
      "name": "GLTF_SceneRootNode"
    },
    {
      "children": [
        4
      ],
      "matrix": [
        1.0,
        0.0,
        0.0,
        0.0,
        0.0,
        1.0,
        0.0,
        0.0,
        0.0,
        0.0,
        1.0,
        0.0,
        -0.0100694065913558,
        0.20216506719589233,
        0.0,
        1.0
      ],
      "name": "export_0"
    },
    {
      "mesh": 0,
      "name": "Object_4"
    }
  ],
  "samplers": [
    {
      "magFilter": 9729,
      "minFilter": 9987,
      "wrapS": 10497,
      "wrapT": 10497
    }
  ],
  "scene": 0,
  "scenes": [
    {
      "name": "Sketchfab_Scene",
      "nodes": [
        0
      ]
    }
  ],
  "textures": [
    {
      "sampler": 0,
      "source": 0
    },
    {
      "sampler": 0,
      "source": 1
    },
    {
      "sampler": 0,
      "source": 2
    },
    {
      "sampler": 0,
      "source": 3
    }
  ]
}
